<?xml version="1.0" encoding="UTF-8"?>
<svg xmlns="http://www.w3.org/2000/svg" xmlns:xlink="http://www.w3.org/1999/xlink" width="963px" height="132px" viewBox="0 0 963 132" version="1.1">
    <g id="surface1" transform="rotate(180 481.5 66)">
        <path style="stroke:none;fill-rule:nonzero;fill:rgb(100%,100%,100%);fill-opacity:1;" d="M 0.25 131.75 L 0.25 0.5 C 3.847656 3.160156 31.195312 23.074219 73.992188 44.835938 C 116.222656 66.3125 182.5625 94.03125 258.769531 104.144531 C 265.9375 105.09375 273.527344 105.578125 281.332031 105.574219 C 331.320312 105.574219 387.585938 86.554688 452.730469 64.53125 C 518.253906 42.375 592.519531 17.269531 673.625 8.28125 C 683.144531 7.226562 693.199219 6.691406 703.515625 6.691406 C 766.878906 6.691406 834.023438 26.902344 879.1875 43.855469 C 926.605469 61.652344 960.375 79.683594 962.746094 80.957031 L 962.746094 131.75 Z M 0.25 131.75 "/>
        <path style="stroke:none;fill-rule:nonzero;fill:rgb(100%,100%,100%);fill-opacity:1;" d="M 0.5 1 C 5.40625 4.601562 32.390625 23.960938 73.878906 45.054688 C 116.132812 66.535156 182.5 94.273438 258.742188 104.390625 C 265.914062 105.34375 273.515625 105.824219 281.335938 105.824219 C 331.371094 105.824219 387.652344 86.796875 452.820312 64.765625 C 518.328125 42.617188 592.582031 17.515625 673.652344 8.527344 C 683.164062 7.472656 693.214844 6.9375 703.515625 6.9375 C 731.472656 6.9375 762.496094 10.839844 795.71875 18.539062 C 822.308594 24.703125 850.359375 33.296875 879.09375 44.082031 C 925.769531 61.601562 959.21875 79.339844 962.5 81.101562 L 962.5 131.492188 L 0.5 131.492188 L 0.5 1 M 0 0 L 0 132 L 963 132 L 963 80.804688 C 963 80.804688 826.257812 6.4375 703.515625 6.4375 C 693.414062 6.4375 683.425781 6.941406 673.597656 8.03125 C 513.679688 25.757812 382.71875 105.324219 281.335938 105.324219 C 273.652344 105.324219 266.148438 104.867188 258.804688 103.894531 C 111.347656 84.320312 0 0 0 0 Z M 0 0 "/>
    </g>
</svg>
